# xmcd
#
# Track frame offsets:
# 150
# 17202
# 33342
# 50458
# 60646
# 71656
# 89387
# 102445
# 117180
# 137493
# 151059
# 166267
# 178846
# 195122
#
# Disc length: 2797 seconds
#
#
# Revision: 0
# Processed by: cddbd v1.5.2PL0 Copyright (c) Steve Scherf et al.
# Submitted via: FreeRIP 2.96 
#
DISCID=b10aeb0e
DTITLE=Joao Nogueira - Gold
DYEAR=1900
DGENRE=Latin
TTITLE0=Poder da criacao
TTITLE1=De babado - com Alcione
TTITLE2=Louco
TTITLE3=O maior castigo que eu te dou
TTITLE4=Dama da noite
TTITLE5=Suplica
TTITLE6=Esmagadora
TTITLE7=O homem de 40
TTITLE8=Minha missao
TTITLE9=Ioio
TTITLE10=Matendo a porta - com Arlindo Cruz e Sombrinha
TTITLE11=Um juramento falso
TTITLE12=Feitio de coracao
TTITLE13=Mineira - com Alcione
EXTD=
EXTT0=
EXTT1=
EXTT2=
EXTT3=
EXTT4=
EXTT5=
EXTT6=
EXTT7=
EXTT8=
EXTT9=
EXTT10=
EXTT11=
EXTT12=
EXTT13=
PLAYORDER=
